<?xml version="1.0" encoding="UTF-8"?>
<svg version="1.1" xmlns="http://www.w3.org/2000/svg" width="300" height="215">
<path d="M0 0 C4.09107727 1.47861032 6.69958244 4.38240787 9 8 C13.7086663 24.19861698 13.15255506 41.30369656 13 58 C13.6290625 57.98549805 14.258125 57.97099609 14.90625 57.95605469 C27.77524308 57.78647082 41.04169112 59.96515152 52.0625 66.9375 C55.32137787 70.40662806 55.1258048 74.49381833 55.09765625 79.08203125 C55.09443359 80.01337891 55.09121094 80.94472656 55.08789062 81.90429688 C55.07951172 82.86400391 55.07113281 83.82371094 55.0625 84.8125 C55.05798828 85.79154297 55.05347656 86.77058594 55.04882812 87.77929688 C55.03708684 90.18626111 55.02066419 92.59309857 55 95 C55.43401123 94.47841309 55.86802246 93.95682617 56.31518555 93.41943359 C64.90458668 83.19389204 76.1450239 72.21367099 90 70 C92.6410066 69.8289794 95.23298371 69.72385802 97.875 69.6875 C98.91720703 69.64399414 98.91720703 69.64399414 99.98046875 69.59960938 C105.17548347 69.53601692 108.02013598 70.72177126 112 74 C118.35476166 82.41576544 117.9349713 92.06062583 116.57421875 102.16015625 C111.28350825 125.75737423 96.68316551 144.27754902 79 160 C75.27709424 163.33314742 71.60675039 166.71389097 67.99169922 170.16381836 C66.90879977 171.18441266 65.81280232 172.19127579 64.70458984 173.18432617 C57.69336473 179.32666725 57.69336473 179.32666725 54.39941406 187.78369141 C54.41355622 191.53985252 54.41355622 191.53985252 54.89306641 195.07739258 C55 198 55 198 53.73461914 199.7980957 C50.9481931 201.72878894 47.91560781 203.04784515 44.8125 204.375 C44.10778564 204.67881592 43.40307129 204.98263184 42.67700195 205.2956543 C26.66053562 212.0430772 11.30069352 215.39735018 -6.125 215.375 C-6.80809235 215.37478851 -7.49118469 215.37457703 -8.19497681 215.37435913 C-28.89230138 215.31045513 -44.68490837 209.40094496 -63 200 C-62.83045807 199.45069321 -62.66091614 198.90138641 -62.48623657 198.33543396 C-60.54649015 190.90375263 -59.93636087 183.21132686 -63 176 C-70.45945207 163.76931277 -82.63672631 153.9549279 -93.01495361 144.27880859 C-96.96122206 140.57288623 -100.83586766 136.79356324 -104.71875 133.02148438 C-110.37918781 127.54300387 -116.06348142 122.09177358 -121.80615234 116.69946289 C-122.70706352 115.84971642 -122.70706352 115.84971642 -123.62617493 114.98280334 C-126.57574192 112.16588129 -126.57574192 112.16588129 -130 110 C-130 109.34 -130 108.68 -130 108 C-130.66 108 -131.32 108 -132 108 C-133.41015625 106.56640625 -133.41015625 106.56640625 -135.0625 104.5625 C-141.68811486 96.26939116 -141.68811486 96.26939116 -150 90 C-150 89.34 -150 88.68 -150 88 C-150.99 87.67 -151.98 87.34 -153 87 C-154.5 85.44140625 -154.5 85.44140625 -156 83.5625 C-160.07324444 78.48155186 -164.23765535 77.33262824 -170.4375 76 C-179.62712465 74.01473088 -179.62712465 74.01473088 -183 72 C-182.67 70.35 -182.34 68.7 -182 67 C-177.80826511 66.32749425 -173.61686558 65.78777341 -169.39990234 65.30957031 C-167.77756575 65.10030044 -166.15996737 64.85104024 -164.54931641 64.56542969 C-147.06558865 61.46756015 -136.55389024 67.4539859 -122.11181641 76.97070312 C-117.56414587 79.93635804 -112.88086685 82.6485556 -108.1875 85.375 C-106.42091321 86.42025117 -104.65531453 87.46717388 -102.890625 88.515625 C-94.4895088 93.49297856 -86.05865527 98.41978512 -77.6315918 103.35302734 C-77.02909607 103.70584778 -76.42660034 104.05866821 -75.80584717 104.42218018 C-74.16425624 105.38344013 -72.52244335 106.34432101 -70.88061523 107.30517578 C-68.24494514 108.85588532 -65.6194674 110.42210929 -63 112 C-62.99589111 110.75387939 -62.99178223 109.50775879 -62.98754883 108.22387695 C-62.96574633 103.59227362 -62.91144485 98.96151846 -62.84741211 94.33032227 C-62.82424189 92.32747539 -62.80983868 90.32450683 -62.80444336 88.3215332 C-62.79514667 85.43884546 -62.75414094 82.55806881 -62.70703125 79.67578125 C-62.7109639 78.78288895 -62.71489655 77.88999664 -62.71894836 76.970047 C-62.61394161 72.47699094 -62.47311477 70.59300814 -59.58569336 66.97387695 C-53.27397404 62.15561138 -46.05434598 60.64244562 -38.375 59.25 C-37.67084961 59.12222168 -36.96669922 58.99444336 -36.24121094 58.86279297 C-31.44010708 58.06634294 -26.86540524 57.89066505 -22 58 C-22.33 57.01 -22.66 56.02 -23 55 C-24.73537945 14.16754233 -24.73537945 14.16754233 -17.01953125 3.1796875 C-12.55871052 -1.63489271 -6.1461212 -0.54582342 0 0 Z M86.87109375 87.41796875 C76.65054868 93.04969767 67.73944209 101.34231902 60 110 C59.23796013 110.82224564 59.23796013 110.82224564 58.46052551 111.66110229 C53.78845008 117.16995324 53.17586711 121.32096366 53.4140625 128.40625 C53.42255219 129.3715564 53.43104187 130.33686279 53.43978882 131.3314209 C53.47314769 134.38879063 53.54839326 137.44343917 53.625 140.5 C53.65512227 142.58329501 53.68249409 144.66663172 53.70703125 146.75 C53.77288158 151.83436816 53.87628073 156.91672413 54 162 C55.25668285 161.06983169 56.51162903 160.13731691 57.76586914 159.20385742 C58.4649086 158.68482346 59.16394806 158.16578949 59.88417053 157.63102722 C79.2314593 142.71680322 96.65591296 121.91191448 100 97 C99.95199103 93.59572786 99.62664142 90.34460422 99 87 C93.9878304 84.56450914 91.80065192 85.22786787 86.87109375 87.41796875 Z " fill="#0A0904" transform="translate(183,0)"/>
<path d="M0 0 C0.84510132 0.29656494 0.84510132 0.29656494 1.70727539 0.59912109 C6.58055068 2.27244079 11.37118726 3.6324608 16.4375 4.625 C18.22994141 4.98464844 18.22994141 4.98464844 20.05859375 5.3515625 C28.04129374 6.66487092 35.9562535 7.16321176 44.0390625 7.203125 C44.96359222 7.20882507 45.88812195 7.21452515 46.84066772 7.22039795 C48.7852059 7.22977771 50.72975948 7.23635367 52.67431641 7.24023438 C55.59697291 7.24990724 58.51891498 7.28098535 61.44140625 7.3125 C78.24191911 7.41024584 91.65917808 4.66880626 108 0 C108 38.94 108 77.88 108 118 C94.03608247 124.98195876 94.03608247 124.98195876 87 127.25 C86.29617187 127.49234375 85.59234375 127.7346875 84.8671875 127.984375 C58.77466918 136.58835953 29.62195704 133.90645592 5.31640625 121.8046875 C2 120 2 120 0 118 C-1.26145173 111.10116396 -1.96904812 101.43121256 1.578125 95.25 C3.625 93.375 3.625 93.375 5.83203125 91.69921875 C12.61513374 86.38273302 15.58252245 77.20955748 17 69 C17.84500556 61.50057563 16.61426223 54.06819047 14 47 C12.25474055 44.82460579 10.91451227 43.96297898 8.32495117 42.84155273 C4.81606016 41.25169017 2.59911488 39.86862914 0 37 C-1.87526824 30.96857362 -1.02747287 24.27589779 -0.6875 18.0625 C-0.63227567 16.31200225 -0.58209372 14.5613377 -0.53710938 12.81054688 C-0.4163323 8.53622689 -0.22687182 4.26994969 0 0 Z " fill="#FEF170" transform="translate(125,79)"/>
<path d="M0 0 C2.33198814 1.20398385 4.60210429 2.44293605 6.875 3.75 C7.57278564 4.14703125 8.27057129 4.5440625 8.98950195 4.953125 C16.65001998 9.33294836 24.23543403 13.84125148 31.82421875 18.34375 C38.70123502 22.42134231 45.6003768 26.46083547 52.5 30.5 C62.35980822 36.27315481 72.20863498 42.06420731 82.03710938 47.890625 C82.85759766 48.37660156 83.67808594 48.86257812 84.5234375 49.36328125 C85.28615967 49.81912598 86.04888184 50.2749707 86.8347168 50.74462891 C88.23005637 51.55360806 89.64517718 52.32981609 91.08129883 53.06396484 C93.92919216 54.53202658 95.74285655 55.54418887 97.33984375 58.375 C99.9609338 69.88723866 100.14873131 80.13378218 95 91 C92.11678518 95.44277193 88.78458095 99.30744534 85 103 C81.68148114 101.55258883 79.49965138 99.74697666 76.95037842 97.19088745 C76.15394928 96.39720764 75.35752014 95.60352783 74.53695679 94.78579712 C73.67236847 93.91401825 72.80778015 93.04223938 71.91699219 92.14404297 C70.99957245 91.22691528 70.08215271 90.3097876 69.13693237 89.36486816 C66.62448703 86.8529964 64.11825394 84.33500797 61.61308956 81.81587744 C58.99281223 79.1830938 56.36686638 76.55597647 53.74151611 73.92825317 C48.77231118 68.95283319 43.80822631 63.97233713 38.8459599 58.98999798 C33.19575337 53.31743327 27.53986372 47.65054957 21.88348913 41.98413634 C10.2493233 30.32906793 -1.37768345 18.66688468 -13 7 C-11.85343125 3.56029374 -11.15481722 3.1217771 -8.1875 1.25 C-7.50042969 0.80140625 -6.81335937 0.3528125 -6.10546875 -0.109375 C-3.43323491 -1.23974479 -2.68031601 -1.0817852 0 0 Z " fill="#FEF271" transform="translate(40,70)"/>
<path d="M0 0 C0 38.94 0 77.88 0 118 C-19.53658537 127.76829268 -19.53658537 127.76829268 -25 126 C-24.36181582 121.27743703 -24.36181582 121.27743703 -22.47555542 119.83106995 C-20.11459049 116.9012634 -20.63140131 113.61261198 -20.70361328 110.01538086 C-20.70810989 109.20195221 -20.71260651 108.38852356 -20.71723938 107.55044556 C-20.73635045 104.85486417 -20.77768068 102.16014845 -20.8203125 99.46484375 C-20.84074372 97.58737642 -20.86025155 95.70989884 -20.87887573 93.83241272 C-20.9214626 89.89044092 -20.97496808 85.94880615 -21.03613281 82.00708008 C-21.11338217 76.97605089 -21.1643395 71.94517588 -21.2070179 66.91374874 C-21.24282043 63.03148064 -21.29254703 59.14948382 -21.3463707 55.26742744 C-21.37046954 53.41408809 -21.39038835 51.56068919 -21.40591812 49.70725822 C-21.48621757 31.13475326 -21.48621757 31.13475326 -30 15 C-32.81446716 13.33257881 -34.91015176 12.74632927 -38.16674805 12.71289062 C-38.97826828 12.69947632 -39.78978851 12.68606201 -40.62590027 12.67224121 C-41.49572037 12.66696411 -42.36554047 12.66168701 -43.26171875 12.65625 C-44.6195623 12.6343158 -44.6195623 12.6343158 -46.00483704 12.61193848 C-48.89901306 12.56548795 -51.7931228 12.53129056 -54.6875 12.5 C-58.48331628 12.4585853 -62.27867216 12.40473984 -66.07421875 12.34375 C-67.36376717 12.33583435 -67.36376717 12.33583435 -68.67936707 12.32775879 C-74.34175853 12.23594349 -79.52337657 11.43835204 -85 10 C-85.33 8.68 -85.66 7.36 -86 6 C-85.07912598 6.10393066 -85.07912598 6.10393066 -84.13964844 6.20996094 C-74.49290491 7.16209825 -64.86138313 7.22073774 -55.17480469 7.24023438 C-52.26989018 7.24993359 -49.3656868 7.28104417 -46.4609375 7.3125 C-31.32367905 7.39858003 -17.80542334 5.49576446 -3.37890625 0.76953125 C-1 0 -1 0 0 0 Z " fill="#FCC642" transform="translate(233,79)"/>
<path d="M0 0 C0.85271484 0.29656494 0.85271484 0.29656494 1.72265625 0.59912109 C6.44630159 2.21277039 11.11255095 3.57604277 16 4.625 C21.89380531 5.89380531 21.89380531 5.89380531 23 7 C23.10771905 8.4543728 23.14681259 9.91389576 23.15821838 11.37220764 C23.1680072 12.31596756 23.17779602 13.25972748 23.18788147 14.23208618 C23.19651466 15.79761734 23.19651466 15.79761734 23.20532227 17.39477539 C23.21522186 18.48732132 23.22512146 19.57986725 23.23532104 20.70552063 C23.2670445 24.33621006 23.29173618 27.96691259 23.31640625 31.59765625 C23.33696642 34.10729829 23.35796263 36.61693678 23.37937927 39.12657166 C23.4290351 45.06931321 23.47427523 51.01207811 23.51740164 56.95486969 C23.57156869 64.38205936 23.63254588 71.80919042 23.69335938 79.23632812 C23.8010592 92.49084558 23.90266698 105.74540257 24 119 C26.37854093 120.29999012 28.76037284 121.59319764 31.14453125 122.8828125 C31.81230591 123.24866455 32.48008057 123.6145166 33.16809082 123.99145508 C37.64707543 126.40564011 41.98720894 128.21275245 46.94921875 129.4296875 C49.14115022 130.0392532 50.99992728 130.92546883 53 132 C34.07467184 132.85270565 18.668424 129.07044981 2 120 C-1.67404137 116.32595863 -0.6077227 110.56000276 -0.64697266 105.59619141 C-0.54524927 101.57559269 -0.44620237 98.77754077 1.578125 95.25 C3.625 93.375 3.625 93.375 5.83203125 91.69921875 C12.61513374 86.38273302 15.58252245 77.20955748 17 69 C17.84500556 61.50057563 16.61426223 54.06819047 14 47 C12.25474055 44.82460579 10.91451227 43.96297898 8.32495117 42.84155273 C4.81606016 41.25169017 2.59911488 39.86862914 0 37 C-1.87526824 30.96857362 -1.02747287 24.27589779 -0.6875 18.0625 C-0.63227567 16.31200225 -0.58209372 14.5613377 -0.53710938 12.81054688 C-0.4163323 8.53622689 -0.22687182 4.26994969 0 0 Z " fill="#FDF6B9" transform="translate(125,79)"/>
<path d="M0 0 C2.76015434 2.19049104 4.50922059 4.77095955 5.77734375 8.01171875 C7.45618995 27.83691724 -0.22025004 48.22251887 -12.55859375 63.68603516 C-15.925212 67.64585344 -19.55572375 71.33220672 -23.22265625 75.01171875 C-24.49649312 76.31080643 -25.76991488 77.61030125 -27.04296875 78.91015625 C-33.22743682 85.18916689 -39.44197282 91.37142298 -46.22265625 97.01171875 C-47.55709892 98.15625996 -48.89046684 99.30205565 -50.22265625 100.44921875 C-51.70765625 101.71765625 -51.70765625 101.71765625 -53.22265625 103.01171875 C-53.867672 99.17745845 -54.02334131 95.83227152 -53.22265625 92.01171875 C-50.37803693 88.37311934 -46.90153968 85.77220848 -43.22265625 83.01171875 C-23.79464061 66.82806721 -7.00545045 47.26351033 -3.87109375 21.07421875 C-3.71382179 16.27027531 -4.005581 12.82454867 -7.22265625 9.01171875 C-10.61991293 6.74688096 -12.11743443 6.84609536 -16.0546875 7.484375 C-30.34316767 10.95995126 -43.17623968 25.10962698 -52.22265625 36.01171875 C-52.55265625 36.01171875 -52.88265625 36.01171875 -53.22265625 36.01171875 C-53.75989031 30.99753419 -53.72796962 28.1129865 -50.66015625 24.01171875 C-49.52773853 22.66697271 -48.38161652 21.33365781 -47.22265625 20.01171875 C-46.48015625 19.03912109 -46.48015625 19.03912109 -45.72265625 18.046875 C-36.01890938 5.79589458 -16.06884408 -7.14484631 0 0 Z " fill="#FAEF6F" transform="translate(290.22265625,74.98828125)"/>
<path d="M0 0 C0 7.59 0 15.18 0 23 C-16.22375868 23.49162905 -38.81310854 23.72005957 -52 13 C-51.63481475 10.57040666 -51.44802868 9.34681267 -49.46435547 7.8112793 C-44.43825469 5.45502235 -39.55989539 3.91798134 -34.125 2.8125 C-33.33053467 2.64524414 -32.53606934 2.47798828 -31.7175293 2.30566406 C-21.05927797 0.11969173 -10.86190835 -0.09874462 0 0 Z " fill="#858260" transform="translate(177,61)"/>
<path d="M0 0 C4.6198007 0.11292846 8.6808632 0.27913603 12.4375 3.1875 C18.00611169 9.29939088 18.12980757 17.52410012 18.11352539 25.48608398 C18.11344986 26.72684189 18.11337433 27.96759979 18.11329651 29.24595642 C18.10819154 30.57933595 18.10297557 31.91271506 18.09765625 33.24609375 C18.09578847 34.62614389 18.09436627 36.00619469 18.09336853 37.38624573 C18.08957168 40.99801502 18.07976594 44.60974335 18.06866455 48.22149658 C18.05838918 51.91523688 18.05385785 55.60898387 18.04882812 59.30273438 C18.03814082 66.53517481 18.02109888 73.76758164 18 81 C14.7 81 11.4 81 8 81 C7.98018066 79.9797876 7.96036133 78.9595752 7.93994141 77.90844727 C8.65373674 38.18366947 8.65373674 38.18366947 0 0 Z " fill="#FCF070" transform="translate(173,3)"/>
<path d="M0 0 C3.08447881 1.43411192 6.04580207 3.04001033 8.9921875 4.734375 C9.68997314 5.13140625 10.38775879 5.5284375 11.10668945 5.9375 C18.75809887 10.3121156 26.33460526 14.81484271 33.9140625 19.3125 C39.04674468 22.35594951 44.19138214 25.37843485 49.34243774 28.39064026 C52.4997943 30.23700691 55.65491403 32.08691465 58.80419922 33.94702148 C63.92835375 36.97047307 69.04764005 39.98127603 74.296875 42.78515625 C75.01496338 43.17928711 75.73305176 43.57341797 76.47290039 43.97949219 C78.25551398 44.95186731 80.05471824 45.89366981 81.85546875 46.83203125 C84.1171875 48.984375 84.1171875 48.984375 84.45849609 51.00732422 C84.47265625 53.23046875 84.47265625 53.23046875 84.1171875 56.984375 C65.89504869 46.65421884 47.85406939 36.00831596 29.78674316 25.41070557 C17.57550517 18.24806991 5.34965653 11.11070063 -6.8828125 3.984375 C-2.51346671 -0.02085864 -2.51346671 -0.02085864 0 0 Z " fill="#F9C642" transform="translate(37.8828125,69.015625)"/>
<path d="M0 0 C10.39130435 3.46376812 10.39130435 3.46376812 13 6 C17.3700851 15.00175981 17.21047098 25.76896065 14.4375 35.1875 C12.30501771 40.99089822 9.15280448 45.46178443 5 50 C4.47535156 50.57621094 3.95070313 51.15242188 3.41015625 51.74609375 C2 53 2 53 0 53 C0 35.51 0 18.02 0 0 Z " fill="#FCF6B9" transform="translate(123,120)"/>
<path d="M0 0 C7.17998427 -0.41623097 13.67851732 0.31232991 20.6875 1.75 C21.48260986 1.90694336 22.27771973 2.06388672 23.09692383 2.22558594 C28.25577673 3.34141878 33.77136532 4.69966845 38 8 C38.7175293 10.13183594 38.7175293 10.13183594 39 12 C26.45592586 19.02135123 14.25101257 21 0 21 C0 14.07 0 7.14 0 0 Z " fill="#858260" transform="translate(195,62)"/>
<path d="M0 0 C4.2586971 3.36305359 4.9507315 6.92819732 5.6875 12.0625 C5.80778564 12.82836426 5.92807129 13.59422852 6.05200195 14.38330078 C6.38900397 16.58647176 6.69997304 18.79152689 7 21 C7.1340625 21.95519531 7.268125 22.91039063 7.40625 23.89453125 C8.42408585 32.87127795 8.0841204 41.98042349 8 51 C4.04 51 0.08 51 -4 51 C-4.04992286 45.93206166 -4.08596378 40.86427058 -4.10986328 35.79614258 C-4.1198403 34.07671613 -4.13342675 32.35730628 -4.15087891 30.63793945 C-4.38869986 6.58304979 -4.38869986 6.58304979 0 0 Z " fill="#F0A03E" transform="translate(169,6)"/>
<path d="M0 0 C4.42741644 1.35282169 6.36309221 3.23298888 9 7 C13.07493238 15.14986476 9.49752234 27.35006621 6.84765625 35.578125 C1.36848623 51.67714586 -7.06706032 64.02612399 -19 76 C-20.27383687 77.29908768 -21.54725863 78.5985825 -22.8203125 79.8984375 C-29.00478057 86.17744814 -35.21931657 92.35970423 -42 98 C-43.33444267 99.14454121 -44.66781059 100.2903369 -46 101.4375 C-47.485 102.7059375 -47.485 102.7059375 -49 104 C-49 102.68 -49 101.36 -49 100 C-48.34 100 -47.68 100 -47 100 C-47 99.34 -47 98.68 -47 98 C-45.63452148 96.64697266 -45.63452148 96.64697266 -43.68359375 95.0390625 C-30.64253305 83.93479299 -16.39574273 71.06350261 -8 56 C-7.48010498 55.06945801 -7.48010498 55.06945801 -6.94970703 54.12011719 C-0.3831643 42.18570944 4.27868757 30.85368967 4.5 17.0625 C4.51869141 16.25707764 4.53738281 15.45165527 4.55664062 14.62182617 C4.49810622 9.2349725 3.36742214 6.3763125 0 2 C0 1.34 0 0.68 0 0 Z " fill="#F4C541" transform="translate(286,74)"/>
<path d="M0 0 C4.25250375 2.90960783 5.82032426 4.9863781 7 10 C7.74404859 14.54032645 8.12292961 18.88741999 8.11352539 23.48608398 C8.11344986 24.72684189 8.11337433 25.96759979 8.11329651 27.24595642 C8.10819154 28.57933595 8.10297557 29.91271506 8.09765625 31.24609375 C8.09578847 32.62614389 8.09436627 34.00619469 8.09336853 35.38624573 C8.08957168 38.99801502 8.07976594 42.60974335 8.06866455 46.22149658 C8.05838918 49.91523688 8.05385785 53.60898387 8.04882812 57.30273438 C8.03814082 64.53517481 8.02109888 71.76758164 8 79 C7.01 79 6.02 79 5 79 C4.99191315 78.30668076 4.98382629 77.61336151 4.97549438 76.89903259 C4.89685448 70.29601469 4.80936911 63.69317629 4.71247292 57.09039974 C4.66298118 53.69759466 4.61665658 50.30481389 4.578125 46.91186523 C4.85074135 23.10801093 4.85074135 23.10801093 0 0 Z " fill="#F2BF3E" transform="translate(183,5)"/>
<path d="M0 0 C4.69216357 1.61293123 9.356453 3.57775304 13 7 C14.54147569 10.24604267 15.30875617 13.48665324 16 17 C16.18046875 17.6703125 16.3609375 18.340625 16.546875 19.03125 C18.72286431 28.48554837 16.09394503 38.53654585 11.3984375 46.828125 C9.99448099 48.9440405 8.55537736 50.9935632 7 53 C6.67 52.34 6.34 51.68 6 51 C5.34 50.67 4.68 50.34 4 50 C4.32613281 49.53851563 4.65226563 49.07703125 4.98828125 48.6015625 C12.9717893 36.68517585 12.90999456 25.00905297 10.92578125 11.1796875 C10.18229003 8.7745342 10.18229003 8.7745342 7.65625 7.828125 C6.7796875 7.55484375 5.903125 7.2815625 5 7 C2.61911331 5.73817611 0.32382349 4.36695499 -2 3 C-1.34 2.67 -0.68 2.34 0 2 C0 1.34 0 0.68 0 0 Z " fill="#13130D" transform="translate(126,117)"/>
<path d="M0 0 C0 38.94 0 77.88 0 118 C-0.33 118 -0.66 118 -1 118 C-1 81.04 -1 44.08 -1 6 C-7.6 6.33 -14.2 6.66 -21 7 C-18.25008866 5.62504433 -16.01118 4.59812236 -13.14453125 3.7109375 C-12.44005859 3.49179688 -11.73558594 3.27265625 -11.00976562 3.046875 C-10.28466797 2.82515625 -9.55957031 2.6034375 -8.8125 2.375 C-8.07580078 2.14554687 -7.33910156 1.91609375 -6.58007812 1.6796875 C-1.1460891 0 -1.1460891 0 0 0 Z " fill="#FFE54C" transform="translate(233,79)"/>
<path d="M0 0 C0.66032227 0.06566162 1.32064453 0.13132324 2.00097656 0.19897461 C11.2450401 1.04949718 20.47514014 1.32320549 29.75 1.5625 C31.33334171 1.60581478 32.91667515 1.64943256 34.5 1.69335938 C38.33324729 1.79905873 42.16658224 1.9006837 46 2 C46 2.33 46 2.66 46 3 C35.605 3.495 35.605 3.495 25 4 C25 4.66 25 5.32 25 6 C16.70316995 6.19676277 9.04924606 6.25943749 1 4 C0.67 2.68 0.34 1.36 0 0 Z " fill="#DAAD39" transform="translate(147,85)"/>
<path d="M0 0 C0.33 0 0.66 0 1 0 C1 16.83 1 33.66 1 51 C0.01 51 -0.98 51 -2 51 C-2 36.48 -2 21.96 -2 7 C-1.67 7 -1.34 7 -1 7 C-0.67 4.69 -0.34 2.38 0 0 Z " fill="#FCD54A" transform="translate(190,33)"/>
<path d="M0 0 C0.99 0.33 1.98 0.66 3 1 C2.33355469 1.46148437 1.66710937 1.92296875 0.98046875 2.3984375 C-8.69735579 9.24735948 -17.55163867 16.7398751 -25 26 C-25.62109375 24.17578125 -25.62109375 24.17578125 -26 22 C-19.91559045 13.16779259 -9.51885534 4.75942767 0 0 Z " fill="#F8CA43" transform="translate(263,85)"/>
<path d="M0 0 C0 1.98 0 3.96 0 6 C-10.395 6.495 -10.395 6.495 -21 7 C-18.25008866 5.62504433 -16.01118 4.59812236 -13.14453125 3.7109375 C-12.44005859 3.49179688 -11.73558594 3.27265625 -11.00976562 3.046875 C-10.28466797 2.82515625 -9.55957031 2.6034375 -8.8125 2.375 C-8.07580078 2.14554687 -7.33910156 1.91609375 -6.58007812 1.6796875 C-1.1460891 0 -1.1460891 0 0 0 Z " fill="#EDE7A7" transform="translate(233,79)"/>
<path d="M0 0 C-2.36292656 2.52588702 -3.66462511 3.88820837 -7 5 C-9.41011251 4.5987822 -11.80605499 4.10870298 -14.1875 3.5625 C-15.45980469 3.27503906 -16.73210938 2.98757812 -18.04296875 2.69140625 C-19.01878906 2.46324219 -19.99460937 2.23507813 -21 2 C-21 1.67 -21 1.34 -21 1 C-14.03220597 -0.32719886 -7.07011089 -0.08825381 0 0 Z " fill="#817E5D" transform="translate(29,69)"/>
<path d="M0 0 C0.66 0 1.32 0 2 0 C0.38989473 4.07376031 -2.53822271 6.76507069 -5.625 9.75 C-6.140625 10.25660156 -6.65625 10.76320312 -7.1875 11.28515625 C-8.45383339 12.52803902 -9.7263144 13.76465276 -11 15 C-11.33 13.68 -11.66 12.36 -12 11 C-11.34 11 -10.68 11 -10 11 C-10 10.34 -10 9.68 -10 9 C-8.3203125 7.34375 -8.3203125 7.34375 -6.125 5.5 C-4.00964496 3.71066742 -1.95980876 1.95980876 0 0 Z " fill="#FCCF44" transform="translate(249,163)"/>
<path d="M0 0 C0.99 0.33 1.98 0.66 3 1 C2.25234375 1.54269531 1.5046875 2.08539063 0.734375 2.64453125 C-0.25046875 3.35996094 -1.2353125 4.07539062 -2.25 4.8125 C-3.22453125 5.52019531 -4.1990625 6.22789063 -5.203125 6.95703125 C-7.48189009 8.62154821 -9.74765822 10.30001823 -12 12 C-12 10.68 -12 9.36 -12 8 C-9.8828125 6.11328125 -9.8828125 6.11328125 -7.125 4.3125 C-6.22007812 3.71050781 -5.31515625 3.10851562 -4.3828125 2.48828125 C-2 1 -2 1 0 0 Z " fill="#ECC040" transform="translate(263,85)"/>
<path d="M0 0 C0.66 0.33 1.32 0.66 2 1 C-1.63 4.63 -5.26 8.26 -9 12 C-9.66 11.67 -10.32 11.34 -11 11 C-9.92173635 9.72486237 -8.83714481 8.45507431 -7.75 7.1875 C-7.14671875 6.47980469 -6.5434375 5.77210937 -5.921875 5.04296875 C-4.07629602 3.08110329 -2.20054668 1.54330375 0 0 Z " fill="#EBE56E" transform="translate(254,84)"/>
<path d="M0 0 C1 4 1 4 0 7 C-0.34227417 8.33106622 -0.67751743 9.66400079 -1 11 C-2.65 11 -4.3 11 -6 11 C-4.02 7.37 -2.04 3.74 0 0 Z " fill="#EBE36B" transform="translate(278,122)"/>
<path d="M0 0 C0 1.98 0 3.96 0 6 C-2.31 5.67 -4.62 5.34 -7 5 C-6.67 4.01 -6.34 3.02 -6 2 C-1.78947368 0 -1.78947368 0 0 0 Z " fill="#F7F3BB" transform="translate(233,79)"/>
<path d="M0 0 C0.33 0 0.66 0 1 0 C2.04745167 5.23725835 2.04745167 5.23725835 2 8 C0.1875 10.5 0.1875 10.5 -2 12 C-2.66 12 -3.32 12 -4 12 C-2.66666667 8 -1.33333333 4 0 0 Z " fill="#EDE66D" transform="translate(283,110)"/>
<path d="M0 0 C4.74452555 3.28467153 4.74452555 3.28467153 5.9375 6.625 C5.958125 7.40875 5.97875 8.1925 6 9 C5.34 9.66 4.68 10.32 4 11 C3.32880451 9.5437455 2.66318193 8.08492133 2 6.625 C1.62875 5.81289062 1.2575 5.00078125 0.875 4.1640625 C0 2 0 2 0 0 Z " fill="#EFC13F" transform="translate(183,5)"/>
<path d="M0 0 C0.99 0.33 1.98 0.66 3 1 C2.34 2.65 1.68 4.3 1 6 C0.67 5.34 0.34 4.68 0 4 C-0.66 3.67 -1.32 3.34 -2 3 C-1.34 2.01 -0.68 1.02 0 0 Z " fill="#0D0D08" transform="translate(132,164)"/>
<path d="M0 0 C0.33 0 0.66 0 1 0 C1 5.28 1 10.56 1 16 C0.67 16 0.34 16 0 16 C0 10.72 0 5.44 0 0 Z " fill="#000000" transform="translate(197,41)"/>
<path d="M0 0 C3.96 0 7.92 0 12 0 C12 0.33 12 0.66 12 1 C8.04 1 4.08 1 0 1 C0 0.67 0 0.34 0 0 Z " fill="#000000" transform="translate(17,63)"/>
<path d="M0 0 C0.33 0 0.66 0 1 0 C1 3.63 1 7.26 1 11 C0.67 11 0.34 11 0 11 C0 7.37 0 3.74 0 0 Z " fill="#000000" transform="translate(159,21)"/>
<path d="M0 0 C0.33 0 0.66 0 1 0 C1 2.31 1 4.62 1 7 C0.67 7 0.34 7 0 7 C0 4.69 0 2.38 0 0 Z " fill="#000000" transform="translate(196,24)"/>
<path d="M0 0 C1.98 0 3.96 0 6 0 C6 0.33 6 0.66 6 1 C4.02 1 2.04 1 0 1 C0 0.67 0 0.34 0 0 Z " fill="#000000" transform="translate(7,64)"/>
<path d="M0 0 C1.98 0 3.96 0 6 0 C6 0.33 6 0.66 6 1 C4.02 1 2.04 1 0 1 C0 0.67 0 0.34 0 0 Z " fill="#000000" transform="translate(153,56)"/>
<path d="M0 0 C1.65 0 3.3 0 5 0 C5 0.33 5 0.66 5 1 C3.35 1 1.7 1 0 1 C0 0.67 0 0.34 0 0 Z " fill="#000000" transform="translate(273,68)"/>
<path d="M0 0 C1.65 0 3.3 0 5 0 C5 0.33 5 0.66 5 1 C3.35 1 1.7 1 0 1 C0 0.67 0 0.34 0 0 Z " fill="#000000" transform="translate(200,56)"/>
<path d="M0 0 C1 4 1 4 1 4 Z " fill="#000000" transform="translate(280,97)"/>
<path d="M0 0 C4 1 4 1 4 1 Z " fill="#000000" transform="translate(214,58)"/>
<path d="M0 0 C4 1 4 1 4 1 Z " fill="#000000" transform="translate(146,57)"/>
<path d="M0 0 C1 4 1 4 1 4 Z " fill="#000000" transform="translate(195,16)"/>
<path d="M0 0 C3 1 3 1 3 1 Z " fill="#000000" transform="translate(204,213)"/>
<path d="M0 0 C3 1 3 1 3 1 Z " fill="#000000" transform="translate(16,78)"/>
<path d="M0 0 C3 1 3 1 3 1 Z " fill="#000000" transform="translate(11,77)"/>
<path d="M0 0 C3 1 3 1 3 1 Z " fill="#000000" transform="translate(7,76)"/>
<path d="" fill="#000000" transform="translate(0,0)"/>
<path d="M0 0 C3 1 3 1 3 1 Z " fill="#000000" transform="translate(269,69)"/>
<path d="M0 0 C3 1 3 1 3 1 Z " fill="#000000" transform="translate(285,68)"/>
<path d="M0 0 C3 1 3 1 3 1 Z " fill="#000000" transform="translate(219,59)"/>
<path d="M0 0 C3 1 3 1 3 1 Z " fill="#000000" transform="translate(141,58)"/>
<path d="M0 0 C3 1 3 1 3 1 Z " fill="#000000" transform="translate(209,57)"/>
<path d="" fill="#000000" transform="translate(0,0)"/>
<path d="" fill="#000000" transform="translate(0,0)"/>
<path d="M0 0 C2 1 2 1 2 1 Z " fill="#000000" transform="translate(200,214)"/>
<path d="M0 0 C2 1 2 1 2 1 Z " fill="#000000" transform="translate(151,214)"/>
<path d="M0 0 C2 1 2 1 2 1 Z " fill="#000000" transform="translate(147,213)"/>
<path d="M0 0 C2 1 2 1 2 1 Z " fill="#000000" transform="translate(208,212)"/>
<path d="M0 0 C2 1 2 1 2 1 Z " fill="#000000" transform="translate(144,212)"/>
<path d="M0 0 C2 1 2 1 2 1 Z " fill="#000000" transform="translate(211,211)"/>
<path d="M0 0 C2 1 2 1 2 1 Z " fill="#000000" transform="translate(141,211)"/>
<path d="M0 0 C2 1 2 1 2 1 Z " fill="#000000" transform="translate(138,210)"/>
<path d="M0 0 C2 1 2 1 2 1 Z " fill="#000000" transform="translate(217,209)"/>
<path d="M0 0 C2 1 2 1 2 1 Z " fill="#000000" transform="translate(220,208)"/>
<path d="" fill="#000000" transform="translate(0,0)"/>
<path d="" fill="#000000" transform="translate(0,0)"/>
<path d="" fill="#000000" transform="translate(0,0)"/>
<path d="" fill="#000000" transform="translate(0,0)"/>
<path d="" fill="#000000" transform="translate(0,0)"/>
<path d="" fill="#000000" transform="translate(0,0)"/>
<path d="" fill="#000000" transform="translate(0,0)"/>
<path d="" fill="#000000" transform="translate(0,0)"/>
<path d="" fill="#000000" transform="translate(0,0)"/>
<path d="" fill="#000000" transform="translate(0,0)"/>
<path d="M0 0 C2 1 2 1 2 1 Z " fill="#000000" transform="translate(271,88)"/>
<path d="M0 0 C2 1 2 1 2 1 Z " fill="#000000" transform="translate(274,87)"/>
<path d="M0 0 C2 1 2 1 2 1 Z " fill="#000000" transform="translate(4,75)"/>
<path d="M0 0 C2 1 2 1 2 1 Z " fill="#000000" transform="translate(2,65)"/>
<path d="M0 0 C2 1 2 1 2 1 Z " fill="#000000" transform="translate(36,62)"/>
<path d="M0 0 C2 1 2 1 2 1 Z " fill="#000000" transform="translate(226,61)"/>
<path d="M0 0 C2 1 2 1 2 1 Z " fill="#000000" transform="translate(130,61)"/>
<path d="M0 0 C2 1 2 1 2 1 Z " fill="#000000" transform="translate(223,60)"/>
<path d="M0 0 C2 1 2 1 2 1 Z " fill="#000000" transform="translate(133,60)"/>
<path d="M0 0 C2 1 2 1 2 1 Z " fill="#000000" transform="translate(137,59)"/>
<path d="" fill="#000000" transform="translate(0,0)"/>
<path d="" fill="#000000" transform="translate(0,0)"/>
<path d="" fill="#000000" transform="translate(0,0)"/>
<path d="" fill="#000000" transform="translate(0,0)"/>
<path d="" fill="#000000" transform="translate(0,0)"/>
<path d="" fill="#000000" transform="translate(0,0)"/>
<path d="" fill="#000000" transform="translate(0,0)"/>
<path d="" fill="#000000" transform="translate(0,0)"/>
<path d="" fill="#000000" transform="translate(0,0)"/>
<path d="" fill="#000000" transform="translate(0,0)"/>
<path d="" fill="#000000" transform="translate(0,0)"/>
<path d="" fill="#000000" transform="translate(0,0)"/>
<path d="" fill="#000000" transform="translate(0,0)"/>
<path d="" fill="#000000" transform="translate(0,0)"/>
<path d="" fill="#000000" transform="translate(0,0)"/>
<path d="" fill="#000000" transform="translate(0,0)"/>
<path d="" fill="#000000" transform="translate(0,0)"/>
<path d="" fill="#000000" transform="translate(0,0)"/>
<path d="" fill="#000000" transform="translate(0,0)"/>
<path d="" fill="#000000" transform="translate(0,0)"/>
<path d="" fill="#000000" transform="translate(0,0)"/>
<path d="" fill="#000000" transform="translate(0,0)"/>
<path d="" fill="#000000" transform="translate(0,0)"/>
<path d="" fill="#000000" transform="translate(0,0)"/>
<path d="" fill="#000000" transform="translate(0,0)"/>
<path d="" fill="#000000" transform="translate(0,0)"/>
<path d="" fill="#000000" transform="translate(0,0)"/>
<path d="" fill="#000000" transform="translate(0,0)"/>
<path d="" fill="#000000" transform="translate(0,0)"/>
<path d="" fill="#000000" transform="translate(0,0)"/>
<path d="" fill="#000000" transform="translate(0,0)"/>
<path d="" fill="#000000" transform="translate(0,0)"/>
<path d="" fill="#000000" transform="translate(0,0)"/>
<path d="" fill="#000000" transform="translate(0,0)"/>
<path d="" fill="#000000" transform="translate(0,0)"/>
<path d="" fill="#000000" transform="translate(0,0)"/>
<path d="" fill="#000000" transform="translate(0,0)"/>
<path d="" fill="#000000" transform="translate(0,0)"/>
<path d="" fill="#000000" transform="translate(0,0)"/>
<path d="" fill="#000000" transform="translate(0,0)"/>
<path d="" fill="#000000" transform="translate(0,0)"/>
<path d="" fill="#000000" transform="translate(0,0)"/>
<path d="" fill="#000000" transform="translate(0,0)"/>
<path d="" fill="#000000" transform="translate(0,0)"/>
<path d="" fill="#000000" transform="translate(0,0)"/>
<path d="" fill="#000000" transform="translate(0,0)"/>
<path d="" fill="#000000" transform="translate(0,0)"/>
<path d="" fill="#000000" transform="translate(0,0)"/>
<path d="" fill="#000000" transform="translate(0,0)"/>
<path d="" fill="#000000" transform="translate(0,0)"/>
<path d="" fill="#000000" transform="translate(0,0)"/>
<path d="" fill="#000000" transform="translate(0,0)"/>
<path d="" fill="#000000" transform="translate(0,0)"/>
<path d="" fill="#000000" transform="translate(0,0)"/>
<path d="" fill="#000000" transform="translate(0,0)"/>
<path d="" fill="#000000" transform="translate(0,0)"/>
<path d="" fill="#000000" transform="translate(0,0)"/>
<path d="" fill="#000000" transform="translate(0,0)"/>
<path d="" fill="#000000" transform="translate(0,0)"/>
<path d="" fill="#000000" transform="translate(0,0)"/>
<path d="" fill="#000000" transform="translate(0,0)"/>
<path d="" fill="#000000" transform="translate(0,0)"/>
<path d="" fill="#000000" transform="translate(0,0)"/>
<path d="" fill="#000000" transform="translate(0,0)"/>
<path d="" fill="#000000" transform="translate(0,0)"/>
<path d="" fill="#000000" transform="translate(0,0)"/>
<path d="" fill="#000000" transform="translate(0,0)"/>
<path d="" fill="#000000" transform="translate(0,0)"/>
<path d="" fill="#000000" transform="translate(0,0)"/>
<path d="" fill="#000000" transform="translate(0,0)"/>
<path d="" fill="#000000" transform="translate(0,0)"/>
<path d="" fill="#000000" transform="translate(0,0)"/>
<path d="" fill="#000000" transform="translate(0,0)"/>
<path d="" fill="#000000" transform="translate(0,0)"/>
<path d="" fill="#000000" transform="translate(0,0)"/>
<path d="" fill="#000000" transform="translate(0,0)"/>
<path d="" fill="#000000" transform="translate(0,0)"/>
<path d="" fill="#000000" transform="translate(0,0)"/>
<path d="" fill="#000000" transform="translate(0,0)"/>
<path d="" fill="#000000" transform="translate(0,0)"/>
<path d="" fill="#000000" transform="translate(0,0)"/>
<path d="" fill="#000000" transform="translate(0,0)"/>
<path d="" fill="#000000" transform="translate(0,0)"/>
<path d="" fill="#000000" transform="translate(0,0)"/>
<path d="" fill="#000000" transform="translate(0,0)"/>
<path d="" fill="#000000" transform="translate(0,0)"/>
<path d="" fill="#000000" transform="translate(0,0)"/>
<path d="" fill="#000000" transform="translate(0,0)"/>
<path d="" fill="#000000" transform="translate(0,0)"/>
<path d="" fill="#000000" transform="translate(0,0)"/>
<path d="" fill="#000000" transform="translate(0,0)"/>
<path d="" fill="#000000" transform="translate(0,0)"/>
<path d="" fill="#000000" transform="translate(0,0)"/>
<path d="" fill="#000000" transform="translate(0,0)"/>
<path d="" fill="#000000" transform="translate(0,0)"/>
<path d="" fill="#000000" transform="translate(0,0)"/>
<path d="" fill="#000000" transform="translate(0,0)"/>
<path d="" fill="#000000" transform="translate(0,0)"/>
<path d="" fill="#000000" transform="translate(0,0)"/>
<path d="" fill="#000000" transform="translate(0,0)"/>
<path d="" fill="#000000" transform="translate(0,0)"/>
<path d="" fill="#000000" transform="translate(0,0)"/>
<path d="" fill="#000000" transform="translate(0,0)"/>
<path d="" fill="#000000" transform="translate(0,0)"/>
<path d="" fill="#000000" transform="translate(0,0)"/>
<path d="" fill="#000000" transform="translate(0,0)"/>
<path d="" fill="#000000" transform="translate(0,0)"/>
<path d="" fill="#000000" transform="translate(0,0)"/>
<path d="" fill="#000000" transform="translate(0,0)"/>
<path d="" fill="#000000" transform="translate(0,0)"/>
<path d="" fill="#000000" transform="translate(0,0)"/>
<path d="" fill="#000000" transform="translate(0,0)"/>
<path d="" fill="#000000" transform="translate(0,0)"/>
<path d="" fill="#000000" transform="translate(0,0)"/>
<path d="" fill="#000000" transform="translate(0,0)"/>
<path d="" fill="#000000" transform="translate(0,0)"/>
<path d="" fill="#000000" transform="translate(0,0)"/>
<path d="" fill="#000000" transform="translate(0,0)"/>
<path d="" fill="#000000" transform="translate(0,0)"/>
<path d="" fill="#000000" transform="translate(0,0)"/>
<path d="" fill="#000000" transform="translate(0,0)"/>
<path d="" fill="#000000" transform="translate(0,0)"/>
<path d="" fill="#000000" transform="translate(0,0)"/>
<path d="" fill="#000000" transform="translate(0,0)"/>
<path d="" fill="#000000" transform="translate(0,0)"/>
<path d="" fill="#000000" transform="translate(0,0)"/>
<path d="" fill="#000000" transform="translate(0,0)"/>
<path d="" fill="#000000" transform="translate(0,0)"/>
<path d="" fill="#000000" transform="translate(0,0)"/>
<path d="" fill="#000000" transform="translate(0,0)"/>
<path d="" fill="#000000" transform="translate(0,0)"/>
<path d="" fill="#000000" transform="translate(0,0)"/>
<path d="" fill="#000000" transform="translate(0,0)"/>
<path d="" fill="#000000" transform="translate(0,0)"/>
<path d="" fill="#000000" transform="translate(0,0)"/>
<path d="" fill="#000000" transform="translate(0,0)"/>
<path d="" fill="#000000" transform="translate(0,0)"/>
<path d="" fill="#000000" transform="translate(0,0)"/>
<path d="" fill="#000000" transform="translate(0,0)"/>
<path d="" fill="#000000" transform="translate(0,0)"/>
<path d="" fill="#000000" transform="translate(0,0)"/>
<path d="" fill="#000000" transform="translate(0,0)"/>
<path d="" fill="#000000" transform="translate(0,0)"/>
<path d="" fill="#000000" transform="translate(0,0)"/>
<path d="" fill="#000000" transform="translate(0,0)"/>
<path d="" fill="#000000" transform="translate(0,0)"/>
<path d="" fill="#000000" transform="translate(0,0)"/>
<path d="" fill="#000000" transform="translate(0,0)"/>
<path d="" fill="#000000" transform="translate(0,0)"/>
<path d="" fill="#000000" transform="translate(0,0)"/>
<path d="" fill="#000000" transform="translate(0,0)"/>
<path d="" fill="#000000" transform="translate(0,0)"/>
<path d="" fill="#000000" transform="translate(0,0)"/>
<path d="" fill="#000000" transform="translate(0,0)"/>
<path d="" fill="#000000" transform="translate(0,0)"/>
<path d="" fill="#000000" transform="translate(0,0)"/>
<path d="" fill="#000000" transform="translate(0,0)"/>
<path d="" fill="#000000" transform="translate(0,0)"/>
<path d="" fill="#000000" transform="translate(0,0)"/>
<path d="" fill="#000000" transform="translate(0,0)"/>
<path d="" fill="#000000" transform="translate(0,0)"/>
<path d="" fill="#000000" transform="translate(0,0)"/>
<path d="" fill="#000000" transform="translate(0,0)"/>
<path d="" fill="#000000" transform="translate(0,0)"/>
<path d="" fill="#000000" transform="translate(0,0)"/>
<path d="" fill="#000000" transform="translate(0,0)"/>
<path d="" fill="#000000" transform="translate(0,0)"/>
<path d="" fill="#000000" transform="translate(0,0)"/>
<path d="" fill="#000000" transform="translate(0,0)"/>
<path d="" fill="#000000" transform="translate(0,0)"/>
<path d="" fill="#000000" transform="translate(0,0)"/>
<path d="" fill="#000000" transform="translate(0,0)"/>
<path d="" fill="#000000" transform="translate(0,0)"/>
<path d="" fill="#000000" transform="translate(0,0)"/>
<path d="" fill="#000000" transform="translate(0,0)"/>
<path d="" fill="#000000" transform="translate(0,0)"/>
<path d="" fill="#000000" transform="translate(0,0)"/>
<path d="" fill="#000000" transform="translate(0,0)"/>
<path d="" fill="#000000" transform="translate(0,0)"/>
<path d="" fill="#000000" transform="translate(0,0)"/>
<path d="" fill="#000000" transform="translate(0,0)"/>
<path d="" fill="#000000" transform="translate(0,0)"/>
<path d="" fill="#000000" transform="translate(0,0)"/>
<path d="" fill="#000000" transform="translate(0,0)"/>
<path d="" fill="#000000" transform="translate(0,0)"/>
<path d="" fill="#000000" transform="translate(0,0)"/>
<path d="" fill="#000000" transform="translate(0,0)"/>
<path d="" fill="#000000" transform="translate(0,0)"/>
<path d="" fill="#000000" transform="translate(0,0)"/>
<path d="" fill="#000000" transform="translate(0,0)"/>
<path d="" fill="#000000" transform="translate(0,0)"/>
<path d="" fill="#000000" transform="translate(0,0)"/>
<path d="" fill="#000000" transform="translate(0,0)"/>
<path d="" fill="#000000" transform="translate(0,0)"/>
<path d="" fill="#000000" transform="translate(0,0)"/>
<path d="" fill="#000000" transform="translate(0,0)"/>
<path d="" fill="#000000" transform="translate(0,0)"/>
<path d="" fill="#000000" transform="translate(0,0)"/>
<path d="" fill="#000000" transform="translate(0,0)"/>
<path d="" fill="#000000" transform="translate(0,0)"/>
<path d="" fill="#000000" transform="translate(0,0)"/>
<path d="" fill="#000000" transform="translate(0,0)"/>
<path d="" fill="#000000" transform="translate(0,0)"/>
<path d="" fill="#000000" transform="translate(0,0)"/>
<path d="" fill="#000000" transform="translate(0,0)"/>
<path d="" fill="#000000" transform="translate(0,0)"/>
<path d="" fill="#000000" transform="translate(0,0)"/>
<path d="" fill="#000000" transform="translate(0,0)"/>
<path d="" fill="#000000" transform="translate(0,0)"/>
<path d="" fill="#000000" transform="translate(0,0)"/>
<path d="" fill="#000000" transform="translate(0,0)"/>
<path d="" fill="#000000" transform="translate(0,0)"/>
<path d="" fill="#000000" transform="translate(0,0)"/>
<path d="" fill="#000000" transform="translate(0,0)"/>
<path d="" fill="#000000" transform="translate(0,0)"/>
<path d="" fill="#000000" transform="translate(0,0)"/>
<path d="" fill="#000000" transform="translate(0,0)"/>
<path d="" fill="#000000" transform="translate(0,0)"/>
<path d="" fill="#000000" transform="translate(0,0)"/>
<path d="" fill="#000000" transform="translate(0,0)"/>
<path d="" fill="#000000" transform="translate(0,0)"/>
<path d="" fill="#000000" transform="translate(0,0)"/>
<path d="" fill="#000000" transform="translate(0,0)"/>
<path d="" fill="#000000" transform="translate(0,0)"/>
<path d="" fill="#000000" transform="translate(0,0)"/>
<path d="" fill="#000000" transform="translate(0,0)"/>
<path d="" fill="#000000" transform="translate(0,0)"/>
<path d="" fill="#000000" transform="translate(0,0)"/>
<path d="" fill="#000000" transform="translate(0,0)"/>
<path d="" fill="#000000" transform="translate(0,0)"/>
<path d="" fill="#000000" transform="translate(0,0)"/>
<path d="" fill="#000000" transform="translate(0,0)"/>
<path d="" fill="#000000" transform="translate(0,0)"/>
<path d="" fill="#000000" transform="translate(0,0)"/>
<path d="" fill="#000000" transform="translate(0,0)"/>
<path d="" fill="#000000" transform="translate(0,0)"/>
<path d="" fill="#000000" transform="translate(0,0)"/>
<path d="" fill="#000000" transform="translate(0,0)"/>
<path d="" fill="#000000" transform="translate(0,0)"/>
<path d="" fill="#000000" transform="translate(0,0)"/>
<path d="" fill="#000000" transform="translate(0,0)"/>
<path d="" fill="#000000" transform="translate(0,0)"/>
<path d="" fill="#000000" transform="translate(0,0)"/>
<path d="" fill="#000000" transform="translate(0,0)"/>
<path d="" fill="#000000" transform="translate(0,0)"/>
<path d="" fill="#000000" transform="translate(0,0)"/>
<path d="" fill="#000000" transform="translate(0,0)"/>
<path d="" fill="#000000" transform="translate(0,0)"/>
<path d="" fill="#000000" transform="translate(0,0)"/>
<path d="" fill="#000000" transform="translate(0,0)"/>
<path d="" fill="#000000" transform="translate(0,0)"/>
<path d="" fill="#000000" transform="translate(0,0)"/>
<path d="" fill="#000000" transform="translate(0,0)"/>
<path d="" fill="#000000" transform="translate(0,0)"/>
</svg>
